<?xml version="1.0" encoding="UTF-8" standalone="no" ?>
<!DOCTYPE svg PUBLIC "-//W3C//DTD SVG 1.1//EN" "http://www.w3.org/Graphics/SVG/1.1/DTD/svg11.dtd">
<svg xmlns="http://www.w3.org/2000/svg" xmlns:xlink="http://www.w3.org/1999/xlink" version="1.1" width="1080" height="1080" viewBox="0 0 1080 1080" xml:space="preserve">
<desc>Created with Fabric.js 5.2.4</desc>
<defs>
</defs>
<g transform="matrix(1 0 0 1 540 540)" id="c64245e2-8bcf-4ba8-849a-508b855d3955"  >
<rect style="stroke: none; stroke-width: 1; stroke-dasharray: none; stroke-linecap: butt; stroke-dashoffset: 0; stroke-linejoin: miter; stroke-miterlimit: 4; fill: rgb(255,255,255); fill-rule: nonzero; opacity: 1; visibility: hidden;" vector-effect="non-scaling-stroke"  x="-540" y="-540" rx="0" ry="0" width="1080" height="1080" />
</g>
<g transform="matrix(1 0 0 1 540 540)" id="db7ca472-6ca3-400b-bebb-fdbb4fd3ced5"  >
</g>
<g transform="matrix(4.15 0 0 4.15 540 540)"  >
<g style=""   >
		<g transform="matrix(1 0 0 1 0 0)" id="element-id-63824"  >
<linearGradient id="SVGID_color-133413_3" gradientUnits="userSpaceOnUse" gradientTransform="matrix(1 0 0 1 0 0)"  x1="146.00024" y1="235" x2="403.99976" y2="235">
<stop offset="0%" style="stop-color:rgb(240,67,147);stop-opacity: 1"/>
<stop offset="100%" style="stop-color:rgb(249,196,73);stop-opacity: 1"/>
</linearGradient>
<path style="stroke: none; stroke-width: 1; stroke-dasharray: none; stroke-linecap: butt; stroke-dashoffset: 0; stroke-linejoin: miter; stroke-miterlimit: 10; fill: url(#SVGID_color-133413_3); fill-rule: evenodd; opacity: 1;" vector-effect="non-scaling-stroke"  transform=" translate(-275, -235)" d="M 346.94123 237.13657 L 346.95894000000004 236.41761 L 346.96832000000006 235.69865 L 346.97145000000006 235.00781999999998 L 346.97145000000006 234.99219 L 346.96832000000006 234.27322999999998 L 346.95790000000005 233.55426999999997 L 346.94019000000003 232.83530999999996 L 346.91622 232.11634999999995 L 346.88496000000004 231.39738999999994 L 346.84641000000005 230.67946999999995 L 346.80161000000004 229.96050999999994 L 346.74951000000004 229.24362999999994 L 346.68908000000005 228.52674999999994 L 346.62239000000005 227.80986999999993 L 346.54841000000005 227.09402999999992 L 346.4681800000001 226.3781899999999 L 346.37961000000007 225.6633999999999 L 346.28375000000005 224.95068999999992 L 346.1816400000001 224.23797999999994 L 346.07223000000005 223.52630999999994 L 345.95449 222.81567999999993 L 345.83049 222.10609999999994 L 345.69816 221.39859999999993 L 345.55958 220.69213999999994 L 345.4137 219.98671999999993 L 345.26053 219.28338999999994 L 345.10007 218.58109999999994 L 344.93231000000003 217.88088999999994 L 344.7583 217.18276999999995 L 344.57595000000003 216.48568999999995 L 344.38735 215.79068999999996 L 344.19146 215.09777999999994 L 343.98827 214.40694999999994 L 343.77779 213.71924999999993 L 343.56106 213.03258999999994 L 343.33808 212.34800999999993 L 343.10676 211.66655999999992 L 342.86919 210.9871899999999 L 342.62537 210.30990999999992 L 342.37424999999996 209.63574999999992 L 342.11688 208.96367999999993 L 341.85326 208.29472999999993 L 341.58234999999996 207.62786999999992 L 341.30934999999994 206.97558999999993 L 341.02592999999996 206.31393999999992 L 340.73625999999996 205.6554099999999 L 340.44033999999994 205.00000999999992 L 340.13712999999996 204.34772999999993 L 339.82766 203.69753999999992 L 339.51194 203.05151999999993 L 339.18996999999996 202.40757999999994 L 338.86071 201.76780999999994 L 338.52624 201.13011999999995 L 338.18447 200.49659999999994 L 337.83644999999996 199.86620999999994 L 337.48217999999997 199.23997999999995 L 337.12165999999996 198.61687999999995 L 336.75487999999996 197.99689999999995 L 336.38185 197.38108999999994 L 336.00257 196.76944999999995 L 335.61704 196.16093999999995 L 335.22526 195.55763999999996 L 334.82723 194.95745999999997 L 334.42294 194.36144999999996 L 334.01344 193.76960999999997 L 333.59769 193.18193999999997 L 333.17569 192.59842999999998 L 332.74744 192.01908999999998 L 332.31397999999996 191.44495999999998 L 331.87426999999997 190.87395999999998 L 331.42934999999994 190.30920999999998 L 330.9781699999999 189.74758999999997 L 330.52282999999994 189.19117999999997 L 330.06123999999994 188.63893 L 329.59338999999994 188.09188999999998 L 329.12032999999997 187.54901999999998 L 328.64311 187.01136 L 328.15963 186.47787 L 327.67094 185.95063 L 327.17809 185.42651999999998 L 326.68003 184.90865999999997 L 326.17884 184.39704999999998 L 325.88604999999995 184.10216999999997 L 325.37443999999994 183.59680999999998 L 324.8596999999999 183.09561999999997 L 324.33870999999994 182.59963999999997 L 323.8125099999999 182.10782999999998 L 323.2821399999999 181.62227 L 322.7476099999999 181.14087999999998 L 322.2068299999999 180.66573999999997 L 321.66291999999993 180.19580999999997 L 321.1127599999999 179.73108999999997 L 320.5594699999999 179.27157999999997 L 319.9999299999999 178.81727999999998 L 319.43725999999987 178.36923 L 318.86937999999986 177.92639 L 318.29733999999985 177.4898 L 317.72008999999986 177.05842 L 317.13970999999987 176.63329000000002 L 316.55411999999984 176.21442000000002 L 315.96435999999983 175.80076000000003 L 315.3704299999998 175.39439000000002 L 314.7733799999998 174.99219000000002 L 314.1711199999998 174.59728 L 313.5657299999998 174.20862000000002 L 312.9551299999998 173.82622000000003 L 312.3414099999998 173.44903000000002 L 311.7245599999998 173.07913000000002 L 311.10353999999984 172.71444000000002 L 310.47835999999984 172.35704 L 309.85004999999984 172.00589000000002 L 309.21860999999984 171.66100000000003 L 308.58300999999983 171.32236000000003 L 307.9442799999998 170.98997000000003 L 307.3024199999998 170.66487000000004 L 306.6584799999998 170.34498000000005 L 306.01036999999985 170.03239000000005 L 305.35913999999985 169.72605000000004 L 304.70581999999985 169.42596000000003 L 304.04832999999985 169.13317000000004 L 303.3918899999999 168.84663000000003 L 303.00948999999986 168.68408000000002 L 302.34574999999984 168.40691 L 301.67888999999985 168.13704 L 301.00993999999986 167.87238000000002 L 300.33786999999984 167.61605000000003 L 299.66370999999987 167.36493000000004 L 298.98642999999987 167.12111000000004 L 298.30705999999986 166.88354000000004 L 297.6245699999999 166.65326000000005 L 296.9399899999999 166.43028000000004 L 296.2533299999999 166.21355000000003 L 295.56457999999986 166.00307000000004 L 294.87374999999986 165.80093000000005 L 294.1808399999999 165.60504000000006 L 293.48687999999987 165.41644000000005 L 292.78979999999984 165.23514000000006 L 292.09062999999986 165.06009000000006 L 291.39041999999984 164.89337000000006 L 290.6891699999998 164.73291000000006 L 289.9847899999998 164.58078000000006 L 289.2793699999998 164.43490000000006 L 288.5729099999998 164.29632000000007 L 287.8654099999998 164.16503000000006 L 287.1558299999998 164.04103000000006 L 286.44519999999983 163.92329000000007 L 285.7335299999998 163.81388000000007 L 285.0208199999998 163.71177000000006 L 284.3081099999998 163.61695000000006 L 283.5933199999998 163.52838000000006 L 282.8785299999998 163.44815000000006 L 282.16268999999977 163.37417000000005 L 281.44580999999977 163.30748000000006 L 280.72892999999976 163.24913000000006 L 280.01100999999977 163.19703000000007 L 279.2930899999998 163.15118000000007 L 278.5741299999998 163.11367000000007 L 277.8562099999998 163.08241000000007 L 277.1372499999998 163.05844000000008 L 276.41828999999984 163.04177000000007 L 275.69932999999986 163.03135000000006 L 274.9918299999999 163.02822000000006 L 274.2728699999999 163.03135000000006 L 273.5539099999999 163.04177000000007 L 272.83494999999994 163.05948000000006 L 272.11598999999995 163.08345000000006 L 271.39806999999996 163.11471000000006 L 270.67911 163.15326000000005 L 269.96119 163.19806000000005 L 269.24327 163.25120000000007 L 268.52639 163.31059000000008 L 267.80951 163.37728000000007 L 267.09367 163.45126000000008 L 266.37888 163.53253000000007 L 265.66409 163.62006000000005 L 264.95034 163.71592000000004 L 264.23762999999997 163.81803000000005 L 263.52595999999994 163.92848000000004 L 262.8163799999999 164.04518000000004 L 262.1067999999999 164.17022000000006 L 261.3992999999999 164.30151000000006 L 260.69283999999993 164.44009000000005 L 259.98741999999993 164.58597000000006 L 259.28408999999994 164.73914000000005 L 258.58179999999993 164.89960000000005 L 257.8815899999999 165.06736000000004 L 257.1824199999999 165.24241000000004 L 256.48637999999994 165.42371000000003 L 255.79137999999995 165.61231000000004 L 255.09846999999993 165.80924000000005 L 254.40763999999993 166.01138000000003 L 253.71888999999993 166.22186000000002 L 253.03222999999994 166.43859000000003 L 252.34868999999995 166.66261000000003 L 251.66723999999994 166.89289000000002 L 250.98682999999994 167.13046000000003 L 250.31058999999993 167.37428000000003 L 249.63642999999993 167.6254 L 248.96435999999994 167.88277000000002 L 248.29540999999995 168.14743 L 247.62854999999993 168.41834 L 246.97522999999993 168.6903 L 246.31461999999993 168.97372000000001 L 245.65608999999992 169.26339000000002 L 245.00068999999993 169.56035000000003 L 244.34840999999994 169.86356000000004 L 243.69821999999994 170.17198000000005 L 243.05114999999992 170.48770000000005 L 242.40824999999992 170.81071000000006 L 241.76743999999994 171.13893000000004 L 241.13078999999993 171.47445000000005 L 240.49726999999993 171.81518000000005 L 239.86687999999992 172.16320000000005 L 239.2396099999999 172.51747000000006 L 238.61650999999992 172.87799000000007 L 237.9975799999999 173.24477000000007 L 237.3817699999999 173.61780000000007 L 236.7690899999999 173.99708000000007 L 236.16161999999989 174.38261000000006 L 235.55726999999987 174.77439000000007 L 234.95708999999988 175.17242000000007 L 234.36107999999987 175.57671000000008 L 233.76923999999988 175.98621000000009 L 233.18156999999988 176.40300000000008 L 232.5980599999999 176.82500000000007 L 232.01975999999988 177.25221000000008 L 231.4445899999999 177.68567000000007 L 230.87462999999988 178.12538000000006 L 230.3088399999999 178.57030000000006 L 229.74721999999988 179.02148000000005 L 229.19080999999989 179.47787000000005 L 228.6396099999999 179.93946000000005 L 228.0915299999999 180.40626000000006 L 227.5496999999999 180.87932000000006 L 227.0120399999999 181.35654000000005 L 226.4785499999999 181.84002000000004 L 225.9502699999999 182.32871000000003 L 225.4271999999999 182.82156000000003 L 224.9082999999999 183.31962000000004 L 224.3977299999999 183.82081000000005 L 224.1028499999999 184.11360000000005 L 223.5964499999999 184.62521000000004 L 223.09525999999988 185.14099000000004 L 222.59927999999988 185.66094000000004 L 222.10850999999988 186.18714000000003 L 221.6229499999999 186.71751000000003 L 221.14155999999988 187.25309000000004 L 220.66641999999987 187.79283000000004 L 220.19544999999988 188.33778000000004 L 219.73072999999988 188.88690000000003 L 219.2712199999999 189.44123000000002 L 218.81795999999989 189.99973000000003 L 218.3699099999999 190.56240000000003 L 217.9270699999999 191.13028000000003 L 217.4904799999999 191.70232000000001 L 217.05909999999992 192.27957 L 216.63396999999992 192.86099000000002 L 216.21509999999992 193.44554000000002 L 215.80143999999993 194.03530000000003 L 215.39402999999993 194.62923000000004 L 214.99286999999993 195.22732000000005 L 214.59795999999992 195.82854000000006 L 214.20929999999993 196.43497000000005 L 213.82584999999992 197.04453000000004 L 213.44969999999992 197.65825000000004 L 213.07875999999993 198.27614000000003 L 212.71510999999992 198.89716 L 212.3577099999999 199.52130000000002 L 212.00655999999992 200.14961000000002 L 211.66166999999993 200.78209 L 211.32302999999993 201.41665 L 210.99063999999993 202.05538 L 210.66449999999992 202.69724000000002 L 210.34565999999992 203.34222000000003 L 210.03306999999992 203.99033000000003 L 209.72672999999992 204.64052000000004 L 209.4266399999999 205.29488000000003 L 209.13279999999992 205.95132000000004 L 208.8472999999999 206.60776000000004 L 208.6847499999999 206.99016000000003 L 208.40757999999988 207.65390000000002 L 208.1366699999999 208.32076000000004 L 207.8730499999999 208.98971000000003 L 207.61567999999988 209.66178000000002 L 207.3656099999999 210.33698 L 207.1207499999999 211.01426 L 206.8842199999999 211.69363 L 206.65393999999992 212.37508000000003 L 206.42991999999992 213.05966000000004 L 206.2131899999999 213.74632000000003 L 206.0037499999999 214.43507000000002 L 205.80160999999993 215.12590000000003 L 205.60571999999993 215.81881000000004 L 205.41711999999993 216.51381000000003 L 205.23581999999993 217.21089000000003 L 205.06076999999993 217.90901000000002 L 204.89404999999994 218.60922000000002 L 204.73358999999994 219.31151000000003 L 204.58041999999995 220.01484000000002 L 204.43453999999994 220.72026000000002 L 204.29595999999995 221.42672000000002 L 204.16466999999994 222.13526000000002 L 204.04066999999995 222.84380000000002 L 203.92396999999994 223.55443000000002 L 203.81455999999994 224.26610000000002 L 203.71244999999993 224.97881 L 203.61658999999995 225.69256000000001 L 203.52905999999996 226.40631000000002 L 203.44778999999997 227.12215000000003 L 203.37484999999998 227.83799000000005 L 203.30816 228.55487000000005 L 203.24876999999998 229.27175000000005 L 203.19666999999998 229.98863000000006 L 203.15186999999997 230.70759000000007 L 203.11332 231.42551000000006 L 203.08309999999997 232.14447000000007 L 203.05912999999998 232.86343000000008 L 203.04142 233.58135000000007 L 203.03204 234.30031000000008 L 203.02891 235.0078100000001 L 203.03204 235.7267700000001 L 203.04246 236.4457300000001 L 203.05913 237.16469000000012 L 203.08414000000002 237.88365000000013 L 203.11540000000002 238.60261000000014 L 203.15291000000002 239.32053000000013 L 203.19876000000002 240.03845000000013 L 203.25086000000002 240.75637000000012 L 203.31025000000002 241.4742900000001 L 203.37798000000004 242.19013000000012 L 203.45092000000002 242.90597000000014 L 203.53219 243.62181000000015 L 203.62076000000002 244.33556000000016 L 203.71558000000002 245.04931000000016 L 203.81874000000002 245.76202000000015 L 203.92919 246.47369000000015 L 204.04589 247.18432000000016 L 204.16989 247.89286000000016 L 204.30222 248.60140000000015 L 204.4408 249.30786000000015 L 204.58668 250.01328000000015 L 204.73985 250.71661000000014 L 204.90031 251.41890000000015 L 205.06806999999998 252.11807000000016 L 205.24208 252.81724000000017 L 205.42443 253.51432000000017 L 205.61303 254.20828000000017 L 205.80892 254.90119000000018 L 206.01211 255.5920200000002 L 206.22155 256.2807700000002 L 206.43932 256.9674300000002 L 206.66230000000002 257.6520100000002 L 206.89362000000003 258.3334600000002 L 207.13119000000003 259.0128300000002 L 207.37501000000003 259.6901100000002 L 207.62613000000002 260.36427000000015 L 207.88350000000003 261.0353000000001 L 208.14712000000003 261.7052900000001 L 208.41803000000002 262.3711100000001 L 208.69103 263.0244300000001 L 208.97445000000002 263.6860800000001 L 209.26412000000002 264.3435700000001 L 209.56108000000003 265.0000100000001 L 209.86325000000002 265.6522900000001 L 210.17272000000003 266.3014400000001 L 210.48844000000003 266.9485100000001 L 210.81041000000002 267.5924500000001 L 211.13967000000002 268.2322200000001 L 211.47414000000003 268.8699100000001 L 211.81591000000003 269.5034300000001 L 212.16393000000002 270.13382000000007 L 212.51820000000004 270.7600500000001 L 212.87872000000004 271.3831500000001 L 213.24550000000005 272.0031300000001 L 213.61853000000005 272.6189400000001 L 213.99781000000004 273.23058000000015 L 214.38334000000003 273.83909000000017 L 214.77512000000004 274.44239000000016 L 215.17315000000005 275.0425700000002 L 215.57744000000005 275.63858000000016 L 215.98694000000006 276.23042000000015 L 216.40269000000006 276.81809000000015 L 216.82469000000006 277.40160000000014 L 217.25294000000005 277.98094000000015 L 217.68640000000005 278.55507000000017 L 218.12611000000004 279.12503000000015 L 218.57103000000004 279.69082000000014 L 219.02116000000004 280.25244000000015 L 219.47755000000004 280.8088500000002 L 219.94019000000003 281.3611000000002 L 220.40699000000004 281.9081400000002 L 220.88005000000004 282.45101000000017 L 221.35727000000003 282.9886700000002 L 221.84075 283.52112000000017 L 222.32839 284.04940000000016 L 222.82229 284.5724700000002 L 223.32035000000002 285.09137000000015 L 223.82154000000003 285.6029800000002 L 224.11433000000002 285.89786000000015 L 224.62490000000003 286.40322000000015 L 225.14068000000003 286.90441000000015 L 225.66167000000004 287.40039000000013 L 226.18787000000003 287.8911600000001 L 226.71824000000004 288.37776000000014 L 227.25277000000003 288.8581100000001 L 227.79355000000004 289.3342900000001 L 228.33746000000005 289.8042200000001 L 228.88762000000006 290.2689400000001 L 229.44091000000006 290.7284500000001 L 230.00045000000006 291.1817100000001 L 230.56312000000005 291.62976000000015 L 231.13100000000006 292.07260000000014 L 231.70304000000004 292.50919000000016 L 232.28029000000004 292.94057000000015 L 232.86067000000003 293.3657000000002 L 233.44626000000002 293.7845700000002 L 234.03602000000004 294.1982300000002 L 234.62995000000004 294.6056400000002 L 235.22700000000003 295.0068000000002 L 235.82926000000003 295.4017100000002 L 236.43465000000003 295.7914100000002 L 237.04525000000004 296.17381000000023 L 237.65897000000004 296.5510000000002 L 238.27582000000004 296.9209000000002 L 238.89684000000003 297.2845500000002 L 239.52202000000003 297.6419500000002 L 240.15033000000003 297.9931000000002 L 240.78177000000002 298.3390400000002 L 241.41737000000003 298.6776800000002 L 242.05610000000004 299.00903000000017 L 242.69796000000005 299.3351700000002 L 243.34190000000004 299.6540100000002 L 243.99001000000004 299.9666000000002 L 244.64124000000004 300.2729400000002 L 245.29560000000004 300.5730300000002 L 245.95204000000004 300.8668700000002 L 246.60848000000004 301.1523700000002 L 246.99088000000003 301.3149200000002 L 247.65462000000002 301.5920900000002 L 248.32148000000004 301.8630000000002 L 248.99043000000003 302.12662000000023 L 249.66250000000002 302.3839900000002 L 250.33666000000002 302.6340600000002 L 251.01394000000002 302.8789200000002 L 251.69331000000003 303.11545000000024 L 252.37580000000003 303.3467700000002 L 253.06038000000004 303.5697500000002 L 253.74600000000004 303.7864800000002 L 254.43475000000004 303.9959200000002 L 255.12558000000004 304.19806000000017 L 255.81954000000005 304.3939500000002 L 256.5135 304.5835900000002 L 257.21058000000005 304.7648900000002 L 257.90975000000003 304.9389000000002 L 258.60996000000006 305.1066600000002 L 259.31225000000006 305.2660800000002 L 260.01558000000006 305.4192500000002 L 260.72100000000006 305.5651300000002 L 261.42746000000005 305.70371000000017 L 262.13496000000004 305.83500000000015 L 262.84454000000005 305.9590000000002 L 263.55517000000003 306.07570000000015 L 264.26684000000006 306.1851100000002 L 264.9795500000001 306.2882700000002 L 265.6922600000001 306.3830900000002 L 266.4070500000001 306.4706200000002 L 267.1218400000001 306.55189000000024 L 267.8376800000001 306.62587000000025 L 268.5545600000001 306.6915100000002 L 269.2714400000001 306.75090000000023 L 269.9893600000001 306.8030000000002 L 270.7072800000001 306.84780000000023 L 271.42624000000006 306.8863500000002 L 272.14416000000006 306.9165700000002 L 272.86312000000004 306.9405400000002 L 273.58208 306.95825000000025 L 274.30104 306.96867000000026 L 275.00854 306.97180000000026 L 275.72749999999996 306.96763000000027 L 276.44645999999995 306.95825000000025 L 277.1654199999999 306.9405400000002 L 277.8843799999999 306.9165700000002 L 278.6022999999999 306.8842700000002 L 279.3212599999999 306.8467600000002 L 280.0391799999999 306.8009100000002 L 280.75709999999987 306.7488100000002 L 281.47397999999987 306.6894200000002 L 282.1908599999999 306.6227300000002 L 282.9066999999999 306.5487500000002 L 283.6214899999999 306.4674800000002 L 284.3362799999999 306.3789100000002 L 285.0500299999999 306.28409000000016 L 285.7627399999999 306.18093000000016 L 286.4733699999999 306.07152000000013 L 287.18399999999986 305.9537800000001 L 287.8935799999999 305.8297800000001 L 288.60107999999985 305.6984900000001 L 289.30753999999985 305.5588700000001 L 290.01295999999985 305.41299000000015 L 290.71733999999987 305.25982000000016 L 291.4185899999999 305.09936000000016 L 292.1187999999999 304.93264000000016 L 292.8179699999999 304.75759000000016 L 293.51400999999987 304.5752400000002 L 294.20900999999986 304.38664000000017 L 294.90191999999985 304.19075000000015 L 295.59274999999985 303.98756000000014 L 296.2814999999999 303.7781200000002 L 296.9681599999999 303.5613900000002 L 297.6516999999999 303.3373700000002 L 298.3331499999999 303.1060500000002 L 299.0125199999999 302.8684800000002 L 299.6897999999999 302.6246600000002 L 300.36395999999985 302.37354000000016 L 301.03602999999987 302.1161700000002 L 301.70497999999986 301.8525500000002 L 302.37183999999985 301.58164000000016 L 303.02515999999986 301.30864000000014 L 303.6857699999999 301.02522000000016 L 304.34429999999986 300.73555000000016 L 304.99969999999985 300.43963000000014 L 305.65301999999986 300.13642000000016 L 306.3021699999999 299.8269500000002 L 306.94923999999986 299.5112300000002 L 307.59213999999986 299.18926000000016 L 308.23294999999985 298.8600000000002 L 308.8695999999998 298.5255300000002 L 309.5031199999998 298.1837600000002 L 310.1335099999998 297.83574000000016 L 310.7607799999998 297.48251000000016 L 311.3838799999998 297.12199000000015 L 312.0028099999998 296.75521000000015 L 312.6186199999998 296.38114000000013 L 313.2312999999998 296.00186000000014 L 313.8387699999998 295.6163300000001 L 314.4431199999998 295.22455000000014 L 315.0432999999998 294.82652000000013 L 315.6393099999998 294.42328000000015 L 316.2311499999998 294.0127400000001 L 316.8188199999998 293.5969900000001 L 317.4023299999998 293.1749900000001 L 317.9806299999998 292.7467400000001 L 318.5557999999998 292.3132800000001 L 319.1257599999998 291.8746100000001 L 319.6915499999998 291.4286400000001 L 320.2531699999998 290.9785100000001 L 320.8095799999998 290.5221200000001 L 321.3618299999998 290.0605300000001 L 321.9088699999998 289.5926800000001 L 322.4506999999998 289.1206700000001 L 322.9893999999998 288.64240000000007 L 323.5218499999998 288.15997000000004 L 324.0501299999998 287.67128 L 324.5731999999998 287.17738 L 325.0920999999998 286.67932 L 325.60266999999976 286.17813 L 325.89754999999974 285.88534 L 326.4039499999997 285.37477 L 326.90409999999974 284.85899 L 327.40111999999976 284.338 L 327.89188999999976 283.81284 L 328.3774499999998 283.28247 L 328.85883999999976 282.74689 L 329.33397999999977 282.20715 L 329.8049499999998 281.6622 L 330.2696699999998 281.11307999999997 L 330.72813999999977 280.55875 L 331.18243999999976 280.00025 L 331.6304899999998 279.43654 L 332.07332999999977 278.86866 L 332.5099199999998 278.29661999999996 L 332.9412999999998 277.72040999999996 L 333.3664299999998 277.13899 L 333.78529999999984 276.55339999999995 L 334.19895999999983 275.96363999999994 L 334.60636999999986 275.37075999999996 L 335.00752999999986 274.77266999999995 L 335.40243999999984 274.17040999999995 L 335.79109999999986 273.56501999999995 L 336.17454999999984 272.95545999999996 L 336.55069999999984 272.34173999999996 L 336.9205999999998 271.72384999999997 L 337.2852899999998 271.10283 L 337.6426899999998 270.47765 L 337.9938399999998 269.84934 L 338.3397799999998 269.2179 L 338.6773799999998 268.58333999999996 L 339.0097699999998 267.94460999999995 L 339.3359099999998 267.30274999999995 L 339.6547499999998 266.65776999999997 L 339.9673399999998 266.00966 L 340.2736799999998 265.35843 L 340.5737699999998 264.70511 L 340.8676099999998 264.04867 L 341.1531099999998 263.39223000000004 L 341.3156599999998 263.00983 L 341.5928299999998 262.34505 L 341.86373999999984 261.67923 L 342.12735999999984 261.00924000000003 L 342.3847299999998 260.33717 L 342.6347999999998 259.66301000000004 L 342.87965999999983 258.98573000000005 L 343.11618999999985 258.30636000000004 L 343.34646999999984 257.62387000000007 L 343.57048999999984 256.9403300000001 L 343.7872199999998 256.25367000000006 L 343.9966599999998 255.56492000000006 L 344.1987999999998 254.87409000000005 L 344.3946899999998 254.18118000000004 L 344.5832899999998 253.48618000000005 L 344.7645899999998 252.78910000000005 L 344.9396399999998 252.09098000000006 L 345.1063599999998 251.38973000000007 L 345.2668199999998 250.68848000000008 L 345.4199899999998 249.9841000000001 L 345.5658699999998 249.2797200000001 L 345.7044499999998 248.5722200000001 L 345.83573999999976 247.8647200000001 L 345.95868999999976 247.1551400000001 L 346.0764299999998 246.4445100000001 L 346.1858399999998 245.73388000000008 L 346.2879499999998 245.0211700000001 L 346.3827699999998 244.3074200000001 L 346.4713399999998 243.5926300000001 L 346.55260999999985 242.8778400000001 L 346.62554999999986 242.1620000000001 L 346.69223999999986 241.4451200000001 L 346.75162999999986 240.72824000000008 L 346.80372999999986 240.0103200000001 L 346.84852999999987 239.2924000000001 L 346.88707999999986 238.5744800000001 L 346.91729999999984 237.8555200000001 z M 343.58191 233.63449 L 343.59233 234.32115 L 343.59546 234.99218 L 343.59546 235.00780999999998 L 343.59233 235.68300999999997 L 343.58191 236.36966999999996 L 343.56524 237.05632999999995 L 343.54232 237.74298999999993 L 343.51314 238.42860999999994 L 343.47667 239.11422999999994 L 343.43291 239.79880999999995 L 343.38394 240.48338999999996 L 343.32663 241.16692999999995 L 343.26307 241.84941999999995 L 343.19326 242.53190999999995 L 343.11615 243.21439999999996 L 343.03175 243.89480999999995 L 342.9411 244.57417999999996 L 342.84315 245.25250999999994 L 342.73895 245.93083999999993 L 342.62746 246.60707999999994 L 342.50867 247.28227999999993 L 342.38363 247.95643999999993 L 342.25234 248.62955999999994 L 342.11272 249.30058999999994 L 341.96684000000005 249.97057999999996 L 341.81471000000005 250.63952999999995 L 341.65529000000004 251.30534999999995 L 341.48857000000004 251.97116999999994 L 341.3156 252.63490999999993 L 341.13638000000003 253.29551999999993 L 340.94987000000003 253.95612999999992 L 340.75606000000005 254.6136199999999 L 340.55704000000003 255.27005999999992 L 340.34969 255.92337999999992 L 340.13713 256.5756599999999 L 339.91727000000003 257.22480999999993 L 339.69116 257.8729199999999 L 339.4588 258.5178999999999 L 339.21915 259.1607999999999 L 338.97429 259.80160999999987 L 338.72213 260.4403399999999 L 338.46371999999997 261.0759399999999 L 338.20009999999996 261.70945999999986 L 338.04693 262.06789999999984 L 337.77185 262.7003799999998 L 337.49156 263.32764999999984 L 337.20502 263.95074999999986 L 336.91222999999997 264.57176999999984 L 336.61422999999996 265.18965999999983 L 336.30996999999996 265.80442999999985 L 335.99945999999994 266.4160699999999 L 335.68165999999997 267.0245799999999 L 335.35968999999994 267.6299699999999 L 335.03042999999997 268.2311899999999 L 334.69595999999996 268.8303299999999 L 334.35522999999995 269.4252999999999 L 334.00825 270.0160999999999 L 333.65502 270.6037699999999 L 333.29658 271.18831999999986 L 332.93189 271.76973999999984 L 332.56095 272.34594999999985 L 332.1848 272.9190399999998 L 331.8024 273.4889999999998 L 331.41479 274.0537499999998 L 331.02092 274.6153699999998 L 330.62183999999996 275.1728299999998 L 330.21650999999997 275.7261199999998 L 329.80596999999995 276.2752399999998 L 329.38917999999995 276.8201899999998 L 328.9671799999999 277.3609699999998 L 328.5399699999999 277.8975899999998 L 328.10754999999995 278.4300399999998 L 327.66991999999993 278.9572799999998 L 327.22707999999994 279.4813899999998 L 326.77798999999993 280.0002899999998 L 326.32472999999993 280.5150299999998 L 325.86625999999995 281.02559999999977 L 325.40257999999994 281.53095999999977 L 324.93368999999996 282.03318999999976 L 324.45958999999993 282.52916999999974 L 323.9813199999999 283.0220199999997 L 323.49783999999994 283.5096599999997 L 323.22171999999995 283.7847399999997 L 322.72887 284.26716999999974 L 322.23393 284.74334999999974 L 321.73377999999997 285.2132799999997 L 321.22945999999996 285.6800799999997 L 320.72097999999994 286.1406299999997 L 320.20832999999993 286.5959699999997 L 319.69046999999995 287.0471499999997 L 319.16947999999996 287.4920699999997 L 318.64327999999995 287.9317799999997 L 318.11186999999995 288.36627999999973 L 317.57733999999994 288.79661999999973 L 317.03759999999994 289.22069999999974 L 316.49472999999995 289.6385299999997 L 315.9466499999999 290.0511499999997 L 315.3954499999999 290.45855999999975 L 314.84007999999994 290.86075999999974 L 314.2805399999999 291.25670999999977 L 313.7168299999999 291.64744999999976 L 313.1489499999999 292.0319399999998 L 312.5769099999999 292.4101799999998 L 312.00173999999987 292.7832099999998 L 311.42239999999987 293.14998999999983 L 310.83993999999984 293.5115599999998 L 310.25330999999983 293.8668699999998 L 309.6635499999998 294.2159299999998 L 309.0696199999998 294.5587399999998 L 308.4725699999998 294.8963399999998 L 307.87238999999977 295.22768999999977 L 307.26803999999976 295.5527899999998 L 306.6605699999998 295.8716299999998 L 306.0510099999998 296.1852599999998 L 305.4372899999998 296.4915999999998 L 304.8204399999998 296.7927299999998 L 304.2015099999998 297.08760999999976 L 303.5784099999998 297.37623999999977 L 302.9532299999998 297.65861999999976 L 302.3249199999998 297.93473999999975 L 301.6945299999998 298.20564999999976 L 301.0714299999998 298.4650999999998 L 300.4347799999998 298.7235099999998 L 299.7970899999998 298.9756699999998 L 299.1562799999998 299.2215799999998 L 298.5123399999998 299.4601899999998 L 297.86735999999985 299.6925499999998 L 297.22028999999986 299.9186599999998 L 296.57009999999985 300.1385199999998 L 295.91781999999984 300.3510799999998 L 295.2644999999998 300.55738999999977 L 294.60805999999985 300.7574499999998 L 293.94952999999987 300.95125999999976 L 293.2899599999999 301.13776999999976 L 292.6293499999999 301.31698999999975 L 291.96560999999986 301.48995999999977 L 291.29978999999986 301.65667999999977 L 290.6329299999999 301.8150599999998 L 289.96501999999987 301.9682299999998 L 289.2950299999999 302.11410999999976 L 288.6239999999999 302.25268999999975 L 287.9508799999999 302.38501999999977 L 287.27671999999995 302.5100599999998 L 286.60151999999994 302.6277999999998 L 285.92527999999993 302.7392899999998 L 285.2469499999999 302.8445299999998 L 284.5686199999999 302.9414299999998 L 283.8882099999999 303.0320799999998 L 283.2077999999999 303.1164799999998 L 282.5263499999999 303.1935899999998 L 281.84385999999995 303.2633999999998 L 281.16137 303.3269599999998 L 280.47783 303.3842699999998 L 279.79325 303.4332399999998 L 279.10867 303.4769999999998 L 278.42305000000005 303.5124299999998 L 277.7374300000001 303.5426499999998 L 277.0518100000001 303.5655699999998 L 276.3651500000001 303.5822399999998 L 275.67849000000007 303.5916199999998 L 274.99183000000005 303.5947499999998 L 274.31663000000003 303.5916199999998 L 273.62997 303.5822399999998 L 272.94331 303.5655699999998 L 272.25769 303.5426499999998 L 271.57103 303.5124299999998 L 270.88645 303.4759599999998 L 270.20083000000005 303.43323999999984 L 269.51729000000006 303.38322999999986 L 268.8327100000001 303.3269599999999 L 268.1502200000001 303.2633999999999 L 267.46773000000013 303.19254999999987 L 266.78628000000015 303.11543999999986 L 266.10587000000015 303.03207999999984 L 265.42546000000016 302.94142999999985 L 264.74713000000014 302.84347999999983 L 264.0688000000001 302.73927999999984 L 263.3925600000001 302.62674999999984 L 262.7173600000001 302.5090099999998 L 262.0432000000001 302.3839699999998 L 261.37008000000014 302.2516399999998 L 260.69905000000017 302.1130599999998 L 260.0290600000002 301.9671799999998 L 259.3611500000002 301.8140099999998 L 258.6942900000002 301.6545899999998 L 258.0284700000002 301.48891999999984 L 257.3657700000002 301.3159499999998 L 256.7041200000002 301.13568999999984 L 256.04455000000024 300.94917999999984 L 255.38602000000023 300.75640999999985 L 254.73062000000024 300.55634999999984 L 254.07626000000025 300.35003999999986 L 253.42398000000026 300.1364399999999 L 252.77483000000026 299.9165799999999 L 252.12672000000026 299.6904699999999 L 251.48174000000026 299.45810999999986 L 250.83884000000026 299.21949999999987 L 250.19803000000027 298.9735899999999 L 249.56034000000028 298.7214299999999 L 248.92369000000028 298.46301999999986 L 248.2912100000003 298.19939999999986 L 247.9317300000003 298.04622999999987 L 247.2992500000003 297.77114999999986 L 246.67302000000032 297.4908599999999 L 246.0488800000003 297.2043199999999 L 245.4289000000003 296.91152999999986 L 244.81101000000032 296.61352999999986 L 244.19624000000033 296.30926999999986 L 243.58460000000034 295.99875999999983 L 242.97609000000034 295.68199999999985 L 242.37070000000034 295.35898999999984 L 241.76844000000034 295.02972999999986 L 241.17035000000033 294.69525999999985 L 240.57538000000034 294.35452999999984 L 239.98354000000035 294.00754999999987 L 239.39587000000034 293.65431999999987 L 238.81132000000034 293.2958799999999 L 238.23094000000034 292.9311899999999 L 237.65369000000035 292.56128999999993 L 237.08060000000035 292.18409999999994 L 236.51168000000035 291.8016999999999 L 235.94589000000036 291.41408999999993 L 235.38427000000036 291.02021999999994 L 234.82786000000036 290.6211399999999 L 234.27457000000035 290.2158099999999 L 233.72545000000036 289.8052699999999 L 233.18050000000036 289.3895199999999 L 232.63972000000035 288.96751999999987 L 232.10310000000035 288.54030999999986 L 231.57065000000034 288.1078899999999 L 231.04237000000035 287.6692199999999 L 230.51930000000036 287.2263799999999 L 229.99935000000036 286.77832999999987 L 229.48461000000037 286.3240299999999 L 228.97404000000037 285.8655599999999 L 228.46868000000038 285.4018799999999 L 227.96749000000037 284.9329899999999 L 227.47047000000038 284.45992999999993 L 226.97762000000037 283.9816599999999 L 226.48998000000037 283.49817999999993 L 226.21490000000037 283.2210099999999 L 225.73247000000038 282.72815999999995 L 225.25629000000038 282.23321999999996 L 224.78636000000037 281.73411 L 224.32060000000038 281.22979 L 223.85901000000038 280.72130999999996 L 223.40367000000037 280.20761999999996 L 222.95354000000037 279.69079999999997 L 222.50757000000038 279.16877 L 222.0678600000004 278.64257 L 221.63336000000038 278.1122 L 221.20407000000037 277.57662 L 220.77999000000037 277.03792 L 220.36112000000037 276.49401 L 219.94850000000037 275.94697 L 219.54109000000037 275.39577 L 219.13889000000037 274.83936 L 218.74294000000037 274.27982 L 218.35324000000037 273.71610999999996 L 217.96875000000037 273.14822999999996 L 217.58947000000038 272.57722999999993 L 217.21644000000038 272.0010199999999 L 216.84966000000037 271.4227199999999 L 216.48809000000037 270.8392099999999 L 216.13278000000037 270.2536199999999 L 215.78372000000036 269.6628199999999 L 215.44091000000037 269.0699399999999 L 215.10331000000036 268.4728899999999 L 214.77196000000038 267.8716699999999 L 214.44686000000038 267.2683699999999 L 214.1280200000004 266.6608999999999 L 213.8154300000004 266.05029999999994 L 213.5080500000004 265.4376199999999 L 213.2069200000004 264.8207699999999 L 212.9120400000004 264.2007899999999 L 212.62341000000038 263.57872999999995 L 212.3410300000004 262.95354999999995 L 212.0649100000004 262.32523999999995 L 211.7940000000004 261.69379999999995 L 211.53455000000042 261.07069999999993 L 211.27614000000042 260.4350999999999 L 211.02398000000042 259.7963699999999 L 210.77912000000043 259.1555599999999 L 210.53947000000042 258.5126599999999 L 210.30711000000042 257.86767999999995 L 210.08100000000042 257.21957 L 209.8611400000004 256.57041999999996 L 209.6485800000004 255.91813999999997 L 209.4422700000004 255.26377999999997 L 209.2422100000004 254.60837999999998 L 209.04840000000038 253.94984999999997 L 208.86293000000038 253.29027999999997 L 208.68267000000037 252.62862999999996 L 208.50970000000038 251.96488999999997 L 208.34403000000037 251.30010999999996 L 208.18461000000036 250.63324999999995 L 208.03144000000037 249.96429999999995 L 207.88556000000037 249.29430999999994 L 207.74698000000038 248.62327999999994 L 207.61465000000038 247.95120999999995 L 207.48961000000037 247.27704999999995 L 207.37187000000037 246.60080999999994 L 207.26038000000037 245.92456999999993 L 207.15618000000038 245.24728999999994 L 207.05823000000038 244.56791999999993 L 206.96758000000037 243.88854999999992 L 206.88318000000038 243.20813999999993 L 206.80607000000037 242.52668999999992 L 206.73626000000039 241.84419999999992 L 206.6727000000004 241.16065999999992 L 206.61643000000038 240.47711999999993 L 206.5664200000004 239.79253999999992 L 206.5237000000004 239.1079599999999 L 206.48723000000038 238.4233799999999 L 206.45701000000037 237.7367199999999 L 206.43409000000037 237.0510999999999 L 206.41846000000038 236.3654799999999 L 206.40804000000037 235.67881999999992 L 206.40491000000037 234.99215999999993 L 206.40804000000037 234.31591999999992 L 206.41846000000038 233.62925999999993 L 206.43409000000037 232.94363999999993 L 206.45701000000037 232.25697999999994 L 206.48723000000038 231.57135999999994 L 206.5237000000004 230.88573999999994 L 206.5664200000004 230.20115999999993 L 206.61643000000038 229.51657999999992 L 206.67374000000038 228.83303999999993 L 206.73730000000037 228.14949999999993 L 206.80711000000036 227.46700999999993 L 206.88422000000037 226.78555999999992 L 206.96862000000036 226.10514999999992 L 207.05927000000037 225.42577999999992 L 207.15722000000036 224.7464099999999 L 207.26142000000036 224.06912999999992 L 207.37291000000036 223.3928899999999 L 207.49065000000036 222.7166499999999 L 207.61673000000036 222.0424899999999 L 207.74802000000037 221.3704199999999 L 207.88764000000037 220.69834999999992 L 208.0324700000004 220.02939999999992 L 208.18564000000038 219.36044999999993 L 208.3450600000004 218.69358999999992 L 208.5107300000004 218.0288099999999 L 208.6847400000004 217.36506999999992 L 208.8639600000004 216.7034199999999 L 209.0504700000004 216.0438499999999 L 209.24324000000038 215.3863599999999 L 209.4433000000004 214.7299199999999 L 209.6496100000004 214.0755599999999 L 209.8632100000004 213.4243299999999 L 210.08307000000042 212.7741399999999 L 210.30918000000042 212.1270699999999 L 210.54154000000042 211.48208999999989 L 210.78119000000044 210.8381499999999 L 211.02605000000042 210.1983799999999 L 211.27821000000043 209.5596499999999 L 211.53662000000043 208.92404999999988 L 211.80024000000043 208.29052999999988 L 211.95341000000042 207.93208999999987 L 212.2295300000004 207.2996099999999 L 212.5087800000004 206.67233999999988 L 212.7953200000004 206.04923999999988 L 213.0881100000004 205.4282199999999 L 213.3861100000004 204.8103299999999 L 213.6903700000004 204.19555999999992 L 214.0008800000004 203.58391999999992 L 214.31764000000038 202.97540999999993 L 214.6406500000004 202.37001999999993 L 214.9699100000004 201.7687999999999 L 215.3043800000004 201.1696599999999 L 215.64511000000041 200.57468999999992 L 215.99209000000042 199.98284999999993 L 216.3453200000004 199.39517999999993 L 216.70376000000041 198.81062999999992 L 217.0684500000004 198.23024999999993 L 217.4393900000004 197.65299999999993 L 217.8155400000004 197.07990999999993 L 218.1979400000004 196.51098999999994 L 218.58555000000038 195.94623999999993 L 218.97942000000037 195.38461999999993 L 219.37850000000037 194.82715999999994 L 219.78383000000036 194.27386999999993 L 220.19437000000036 193.72474999999994 L 220.61116000000035 193.17979999999994 L 221.03212000000036 192.63901999999993 L 221.45933000000036 192.10239999999993 L 221.89279000000036 191.56994999999992 L 222.33042000000037 191.04166999999993 L 222.77326000000036 190.51859999999994 L 223.22131000000036 189.99969999999993 L 223.67561000000035 189.48495999999994 L 224.13408000000035 188.97438999999994 L 224.59776000000036 188.46798999999993 L 225.06665000000035 187.96679999999992 L 225.53971000000035 187.46977999999993 L 226.01902000000035 186.97796999999994 L 226.50145000000035 186.49032999999994 L 226.77862000000036 186.21524999999994 L 227.27147000000036 185.73176999999995 L 227.76641000000038 185.25662999999994 L 228.26656000000037 184.78565999999995 L 228.76983000000035 184.31989999999996 L 229.27831000000035 183.85934999999995 L 229.79200000000034 183.40400999999994 L 230.30986000000036 182.95282999999995 L 230.83085000000037 182.50790999999995 L 231.35705000000036 182.06714999999994 L 231.88846000000035 181.63264999999993 L 232.42299000000034 181.20335999999992 L 232.96169000000035 180.77927999999991 L 233.50560000000036 180.3614499999999 L 234.05264000000037 179.9477899999999 L 234.60489000000035 179.5403799999999 L 235.16026000000036 179.1392199999999 L 235.71980000000036 178.7432699999999 L 236.28351000000035 178.35252999999992 L 236.85139000000035 177.96803999999992 L 237.42343000000034 177.58875999999992 L 237.99860000000035 177.2167699999999 L 238.57794000000035 176.84894999999992 L 239.16040000000035 176.4884299999999 L 239.74703000000036 176.1331199999999 L 240.33679000000038 175.7840599999999 L 240.93072000000038 175.4402099999999 L 241.52777000000037 175.1036499999999 L 242.12795000000037 174.77229999999992 L 242.73230000000038 174.44719999999992 L 243.33873000000037 174.12730999999994 L 243.94933000000037 173.81471999999994 L 244.56305000000037 173.50733999999994 L 245.17990000000037 173.20724999999993 L 245.79883000000038 172.91236999999992 L 246.42193000000037 172.6237399999999 L 247.04711000000037 172.3403199999999 L 247.67542000000037 172.06419999999991 L 248.30581000000038 171.79432999999992 L 248.92891000000037 171.5338399999999 L 249.56556000000037 171.27542999999991 L 250.20325000000037 171.02430999999993 L 250.84406000000035 170.77839999999992 L 251.48696000000035 170.53978999999993 L 252.13298000000034 170.30638999999994 L 252.78005000000036 170.08027999999993 L 253.43024000000037 169.86146999999994 L 254.08147000000037 169.64786999999993 L 254.73583000000036 169.44155999999992 L 255.39227000000037 169.24149999999992 L 256.0497600000004 169.04872999999992 L 256.70933000000036 168.86221999999992 L 257.3709800000004 168.68195999999992 L 258.0347200000004 168.50898999999993 L 258.7005400000004 168.34331999999992 L 259.3663600000004 168.1838999999999 L 260.0353100000004 168.0317699999999 L 260.70530000000036 167.8858899999999 L 261.37633000000034 167.7473099999999 L 262.0494500000003 167.61497999999992 L 262.7236100000003 167.4899399999999 L 263.3988100000003 167.37114999999991 L 264.0750500000003 167.2596599999999 L 264.75338000000033 167.15545999999992 L 265.43171000000035 167.05750999999992 L 266.11108000000036 166.9668599999999 L 266.79253000000034 166.8834999999999 L 267.4739800000003 166.8063899999999 L 268.1554300000003 166.7355399999999 L 268.8389700000003 166.6730199999999 L 269.5225100000003 166.6157099999999 L 270.2070900000003 166.5656999999999 L 270.89167000000026 166.5229799999999 L 271.57729000000023 166.4865099999999 L 272.2629100000002 166.4573299999999 L 272.9485300000002 166.4344099999999 L 273.6351900000002 166.4177399999999 L 274.3218500000002 166.4083599999999 L 275.00851000000023 166.4052299999999 L 275.68371000000025 166.4083599999999 L 276.37037000000026 166.4177399999999 L 277.0570300000003 166.4344099999999 L 277.74265000000025 166.4573299999999 L 278.4282700000002 166.4865099999999 L 279.1138900000002 166.5229799999999 L 279.7984700000002 166.5667399999999 L 280.48305000000016 166.61674999999988 L 281.16763000000014 166.6730199999999 L 281.8501200000001 166.7365799999999 L 282.5326100000001 166.80638999999988 L 283.2140600000001 166.88349999999988 L 283.89447000000007 166.96789999999987 L 284.57488000000006 167.05854999999988 L 285.2532100000001 167.15649999999988 L 285.9304900000001 167.26069999999987 L 286.6077700000001 167.37218999999988 L 287.2829700000001 167.49097999999987 L 287.95713000000006 167.61601999999988 L 288.6292000000001 167.74834999999987 L 289.3012700000001 167.88692999999986 L 289.9712600000001 168.03280999999987 L 290.6391700000001 168.18493999999987 L 291.3060300000001 168.34435999999988 L 291.9708100000001 168.51107999999988 L 292.6345500000001 168.68404999999987 L 293.2962000000001 168.86326999999986 L 293.95681000000013 169.04977999999986 L 294.6143000000001 169.24358999999987 L 295.2697000000001 169.44364999999988 L 295.9240600000001 169.64995999999988 L 296.5752900000001 169.86251999999988 L 297.2254800000001 170.0823799999999 L 297.8725500000001 170.3084899999999 L 298.5185700000001 170.54188999999988 L 299.1614700000001 170.78049999999988 L 299.8022800000001 171.02640999999988 L 300.43997000000013 171.27752999999987 L 301.0766200000001 171.53593999999987 L 301.7091000000001 171.80059999999986 L 302.06754000000006 171.95376999999985 L 302.70106000000004 172.22884999999985 L 303.32729000000006 172.50913999999986 L 303.9514300000001 172.79463999999987 L 304.57141000000007 173.08742999999987 L 305.18930000000006 173.38542999999987 L 305.8040700000001 173.69072999999986 L 306.4157100000001 174.00123999999985 L 307.0242200000001 174.31799999999984 L 307.6296100000001 174.64100999999985 L 308.23083000000014 174.96922999999984 L 308.8299700000001 175.30369999999985 L 309.4249400000001 175.64546999999985 L 310.0167800000001 175.99140999999986 L 310.6044500000001 176.34463999999986 L 311.1890000000001 176.70307999999986 L 311.76938000000007 177.06776999999985 L 312.34663000000006 177.43870999999984 L 312.91972000000004 177.81485999999984 L 313.48864000000003 178.19725999999983 L 314.05443 178.58591999999982 L 314.61501000000004 178.97873999999982 L 315.17247000000003 179.3788599999998 L 315.72576000000004 179.7831499999998 L 316.27488000000005 180.1947299999998 L 316.81983 180.6104799999998 L 317.36061 181.0324799999998 L 317.89723000000004 181.4596899999998 L 318.42968 181.8921099999998 L 318.95796 182.32973999999982 L 319.48103000000003 182.77361999999982 L 320.00098 183.22166999999982 L 320.51572000000004 183.67492999999982 L 321.02525 184.13339999999982 L 321.53165 184.59707999999983 L 322.03284 185.06596999999982 L 322.52986000000004 185.54006999999982 L 323.02167000000003 186.01833999999982 L 323.51036000000005 186.5018199999998 L 323.78544000000005 186.7779399999998 L 324.2678700000001 187.2707899999998 L 324.7430100000001 187.7667699999998 L 325.2139800000001 188.2658799999998 L 325.6797400000001 188.77019999999982 L 326.1402900000001 189.2786799999998 L 326.5966800000001 189.79132999999982 L 327.0468100000001 190.30918999999983 L 327.4927800000001 190.83121999999983 L 327.9324900000001 191.35741999999982 L 328.3669900000001 191.88778999999982 L 328.7962800000001 192.42231999999981 L 329.2203600000001 192.9620599999998 L 329.6392300000001 193.5049299999998 L 330.0518500000001 194.0530099999998 L 330.45926000000014 194.6042099999998 L 330.86042000000015 195.1606199999998 L 331.25741000000016 195.7201599999998 L 331.64711000000017 196.28386999999978 L 332.0316000000002 196.85174999999978 L 332.4108800000002 197.42274999999978 L 332.7839100000002 197.9979199999998 L 333.1506900000002 198.5772599999998 L 333.51121000000023 199.1597199999998 L 333.8675700000002 199.7463499999998 L 334.21663000000024 200.3371499999998 L 334.5594400000002 200.93002999999982 L 334.89704000000023 201.5270799999998 L 335.22735000000023 202.12829999999983 L 335.55349000000024 202.73159999999982 L 335.87233000000026 203.33906999999982 L 336.18596000000025 203.94966999999983 L 336.4923000000002 204.56234999999984 L 336.7934300000002 205.17919999999984 L 337.0883100000002 205.79917999999984 L 337.3769400000002 206.42123999999984 L 337.6593200000002 207.04641999999984 L 337.9354400000002 207.67472999999984 L 338.2063500000002 208.30511999999985 L 338.46580000000023 208.92821999999984 L 338.72421000000026 209.56486999999984 L 338.97533000000027 210.20359999999985 L 339.22124000000025 210.84336999999985 L 339.45985000000024 211.48730999999984 L 339.69325000000026 212.13228999999984 L 339.91936000000027 212.78039999999984 L 340.13922000000025 213.42954999999984 L 340.35178000000025 214.08182999999983 L 340.5580900000002 214.73618999999982 L 340.7581500000002 215.3915899999998 L 340.9509200000002 216.0490799999998 L 341.1374300000002 216.7096899999998 L 341.3176900000002 217.3713399999998 L 341.4906600000002 218.0350799999998 L 341.6563300000002 218.6998599999998 L 341.8157500000002 219.36671999999982 L 341.9689200000002 220.03462999999982 L 342.1137500000002 220.70461999999984 L 342.2533700000002 221.37668999999983 L 342.38466000000017 222.04875999999982 L 342.51074000000017 222.72291999999982 L 342.6284800000002 223.3981199999998 L 342.7399700000002 224.0753999999998 L 342.8441700000002 224.7526799999998 L 342.9421200000002 225.4310099999998 L 343.0327700000002 226.11141999999978 L 343.1171700000002 226.79182999999978 L 343.1932300000002 227.4732799999998 L 343.2640800000002 228.1557699999998 L 343.3276400000002 228.8382599999998 L 343.3839100000002 229.52179999999979 L 343.43392000000017 230.2063799999998 L 343.47664000000015 230.8909599999998 L 343.51311000000015 231.5765799999998 L 343.54229000000015 232.2621999999998 L 343.56626000000017 232.9478199999998 z" stroke-linecap="round" />
</g>
		<g transform="matrix(1 0 0 1 0 0)" id="element-id-83886"  >
<linearGradient id="SVGID_color-133413_4" gradientUnits="userSpaceOnUse" gradientTransform="matrix(1 0 0 1 0 0)"  x1="146.00024" y1="235" x2="403.99976" y2="235">
<stop offset="0%" style="stop-color:rgb(240,67,147);stop-opacity: 1"/>
<stop offset="100%" style="stop-color:rgb(249,196,73);stop-opacity: 1"/>
</linearGradient>
<path style="stroke: none; stroke-width: 1; stroke-dasharray: none; stroke-linecap: butt; stroke-dashoffset: 0; stroke-linejoin: miter; stroke-miterlimit: 10; fill: url(#SVGID_color-133413_4); fill-rule: evenodd; opacity: 1;" vector-effect="non-scaling-stroke"  transform=" translate(-275, -235)" d="M 275.00016 171.04723 C 239.68034 171.04723 211.04791 199.67966 211.04791 234.99948 C 211.04791 270.3193 239.68034 298.95173 275.00016 298.95173 C 310.31998 298.95173 338.95241 270.3193 338.95241 234.99948 C 338.95241 199.67966 310.31998 171.04723 275.00016 171.04723 z M 238.53521 241.22111 L 238.53521 190.69887 L 311.46512 215.95843 z M 311.46511 228.77785 L 311.46511 279.30113 L 238.53519999999997 254.04053 z" stroke-linecap="round" />
</g>
		<g transform="matrix(1 0 0 1 0 0)" id="element-id-49307"  >
<linearGradient id="SVGID_color-133413_5" gradientUnits="userSpaceOnUse" gradientTransform="matrix(1 0 0 1 0 0)"  x1="146.00024" y1="235" x2="403.99976" y2="235">
<stop offset="0%" style="stop-color:rgb(240,67,147);stop-opacity: 1"/>
<stop offset="100%" style="stop-color:rgb(249,196,73);stop-opacity: 1"/>
</linearGradient>
<path style="stroke: none; stroke-width: 1; stroke-dasharray: none; stroke-linecap: butt; stroke-dashoffset: 0; stroke-linejoin: miter; stroke-miterlimit: 10; fill: url(#SVGID_color-133413_5); fill-rule: evenodd; opacity: 1;" vector-effect="non-scaling-stroke"  transform=" translate(-275, -235)" d="M 183.78345 143.78321 C 171.88278 155.68386999999998 162.6684 169.35125 156.14031 184.78536 C 149.38026 200.76784 146.00024 217.50599 146.00024 234.99981 C 146.00024 252.49351 149.38026 269.23143 156.14031 285.2136 C 162.66847 300.6484 171.88285 314.3161 183.78345 326.2167 C 195.6846 338.11793 209.35198 347.33222 224.7856 353.85956 C 240.76827 360.61985999999996 257.50642 364.00001 275.00005 364.00001 C 292.49406 364.00001 309.23215 360.61985999999996 325.21431 353.85956 C 340.64848 347.33159 354.31617 338.1173 366.21741000000003 326.2167 C 378.11738 314.3161 387.33167000000003 300.6484 393.86027 285.2136 C 400.61994000000004 269.23143999999996 403.99977 252.49351 403.99977 234.99980999999997 C 403.99977 217.50585999999996 400.61994 200.76770999999997 393.86027 184.78535999999997 C 387.33167000000003 169.35142999999997 378.11738 155.68404999999996 366.21741000000003 143.78320999999997 C 354.31618000000003 131.88241999999997 340.64848 122.66803999999996 325.21431 116.14006999999997 C 309.23215 109.38001999999997 292.49406 105.99999999999997 275.00005 105.99999999999997 C 257.5061 105.99999999999997 240.76794999999998 109.38001999999997 224.7856 116.14006999999997 C 209.35151 122.66816999999996 195.68412999999998 131.88254999999998 183.78345 143.78320999999997 z M 148.45277 234.99981 C 148.45277 217.83744 151.76820999999998 201.41773 158.39908 185.74069 C 164.80299 170.60022 173.84249 157.19244 185.51758 145.51735 C 197.19267000000002 133.84225999999998 210.60045000000002 124.80275999999999 225.74092000000002 118.39885 C 241.41808000000003 111.76796999999999 257.83779000000004 108.45254 275.00004 108.45254 C 292.16197 108.45254 308.58187 111.76798 324.25973 118.39885 C 339.39968999999996 124.80283 352.80728999999997 133.84233 364.48249999999996 145.51735 C 376.15709 157.19239 385.19649 170.60017 391.60071999999997 185.74069 C 398.23159999999996 201.41773 401.54702999999995 217.83742999999998 401.54702999999995 234.99981 C 401.54702999999995 252.16143 398.2315899999999 268.58116 391.60071999999997 284.25902 C 385.19649 299.39962 376.15707999999995 312.80721 364.48249999999996 324.48179000000005 C 352.80727999999993 336.1576400000001 339.39968999999996 345.1970400000001 324.25973 351.60001000000005 C 308.58187 358.23152000000005 292.16197999999997 361.54727 275.00004 361.54727 C 257.83798 361.54727 241.41828 358.23152000000005 225.74092000000002 351.60001 C 210.60038000000003 345.19641 197.19260000000003 336.15701 185.51758 324.48179 C 173.84249 312.80719999999997 164.80299000000002 299.39961 158.39908 284.25901999999996 C 151.7682 268.58178999999996 148.45277 252.16204999999997 148.45277 234.99980999999997 z" stroke-linecap="round" />
</g>
		<g transform="matrix(1 0 0 1 0 0)" id="element-id-4203"  >
<linearGradient id="SVGID_color-133413_6" gradientUnits="userSpaceOnUse" gradientTransform="matrix(1 0 0 1 0 0)"  x1="146.00024" y1="235" x2="403.99976" y2="235">
<stop offset="0%" style="stop-color:rgb(240,67,147);stop-opacity: 1"/>
<stop offset="100%" style="stop-color:rgb(249,196,73);stop-opacity: 1"/>
</linearGradient>
<path style="stroke: none; stroke-width: 1; stroke-dasharray: none; stroke-linecap: butt; stroke-dashoffset: 0; stroke-linejoin: miter; stroke-miterlimit: 10; fill: url(#SVGID_color-133413_6); fill-rule: evenodd; opacity: 1;" vector-effect="non-scaling-stroke"  transform=" translate(-275, -235)" d="M 152.37675 234.99981 C 152.37675 167.27679999999998 207.27705999999998 112.37642 275.00005 112.37642 C 342.72335 112.37642 397.62363 167.27679999999998 397.62363 234.99981 C 397.62363 302.72263 342.72334 357.62292 275.00005 357.62292 C 207.27706 357.62292 152.37675 302.72263000000004 152.37675 234.99981000000002 z M 264.28875 142.05854 C 267.03855 141.72235999999998 267.38761 139.72287 267.44367 138.73761 L 267.50882 138.74566 L 267.53619000000003 141.72576999999998 L 259.28661000000005 142.73404 L 259.27894000000003 142.67087999999998 L 259.73719000000006 142.61481999999998 C 260.49583000000007 142.52210999999997 261.09670000000006 142.32039999999998 260.94603000000006 141.08768999999998 L 259.94344000000007 132.88545999999997 C 259.7908800000001 131.63702999999995 259.15904000000006 131.58589999999995 258.4005000000001 131.67860999999996 L 257.9421500000001 131.73466999999997 L 257.93448000000006 131.67140999999995 L 263.3077400000001 131.01466999999994 L 263.3155100000001 131.07782999999995 L 261.89312000000007 131.25169999999994 L 263.20414000000005 132.79170999999994 L 264.13135000000005 140.37753999999993 L 263.22990000000004 142.18791999999993 z M 287.81245 137.58691 L 287.8044 137.65007 L 288.27817999999996 137.71068 C 289.02052999999995 137.80546999999999 289.61827999999997 138.02622 289.46088999999995 139.25807 L 289.24307999999996 140.9638 C 289.14829 141.70605999999998 288.88482999999997 142.00947 288.53292999999996 142.12501 C 287.9795 142.31119 287.30978999999996 142.4022 286.6307 142.31545 C 284.75129 142.07539 283.55391 139.38639 283.9453 136.32256999999998 C 284.3366 133.25865 286.16942 130.97278999999997 288.04882999999995 131.21285999999998 C 290.40201999999994 131.51343999999997 290.80402 134.02051999999998 290.92362999999995 135.09516999999997 L 290.98877999999996 135.08749999999998 L 291.04682999999994 131.86865999999998 L 290.98366999999996 131.86060999999998 C 290.97524 132.05209 290.85657999999995 132.10115 290.68289999999996 132.07898999999998 C 290.03533999999996 131.99631999999997 289.46647999999993 131.29761999999997 288.06094999999993 131.11816999999996 C 285.31294999999994 130.76711999999998 282.76334999999995 133.00960999999995 282.36598999999995 136.12086999999997 C 281.96853999999996 139.23203999999996 283.87057999999996 142.05920999999998 286.61857999999995 142.41015999999996 C 288.1031899999999 142.59983999999997 289.52462999999995 142.02699999999996 290.57201 140.98909999999995 L 290.77173 139.42550999999995 C 290.92912 138.19365999999994 291.56323 138.13020999999995 292.3213 138.22707999999994 L 292.77927 138.28550999999993 L 292.78732 138.22234999999992 z M 262.42383 142.28648 L 263.16665 142.19566 L 261.82996 131.25945000000002 L 261.08714000000003 131.35017000000002 z M 254.47596 143.68359 L 254.46042999999997 143.62185000000002 L 253.99724999999998 143.73890000000003 C 253.25632 143.92603000000003 252.63859 143.95074000000002 252.33441999999997 142.74664000000004 L 250.31068999999997 134.73514000000003 C 250.00262999999995 133.51560000000003 250.55804999999995 133.24390000000002 251.29897999999997 133.05678000000003 L 251.76205999999996 132.93983000000003 L 251.74642999999998 132.87809000000004 L 246.88397999999998 134.10635000000005 L 246.89951 134.16809000000003 L 247.34716 134.05502000000004 C 248.08819 133.86789000000005 248.72135 133.83929000000003 249.02941 135.05874000000003 L 251.05314 143.07034000000002 C 251.35732000000002 144.27435000000003 250.78647 144.54993000000002 250.04553 144.73715 L 249.59788 144.85022 L 249.61351 144.91196 z M 301.26 145.19111 C 303.92485 145.94928000000002 305.02242 144.24222 305.45709 143.35602 L 305.51391 143.38879 L 304.36615 146.14124 L 296.52596 143.9103 L 296.54301 143.84903 L 296.98715 143.97536 C 297.72202 144.18455 298.35461 144.2319 298.69459 143.03745 L 300.95602 135.08977000000002 C 301.29978 133.87998000000002 300.73821000000004 133.58755000000002 300.00239000000005 133.37836000000001 L 299.55825000000004 133.25203000000002 L 299.57624000000004 133.19076 L 307.20241000000004 135.36071 L 306.72891000000004 138.30493 L 306.66262000000006 138.30285 C 306.76016000000004 137.32072 306.89369000000005 135.33922 304.06122000000005 134.53304 L 303.38696000000004 134.34137 L 303.99683000000005 136.26965 L 302.9646 139.89892 C 303.79133 140.13425 304.76011 140.39344 305.26107 138.63241 L 305.32262000000003 138.64982999999998 L 304.28566 142.29443999999998 L 304.22411 142.27702 C 304.72602 140.51597999999998 303.76482 140.22611 302.93809 139.99078 L 301.90585999999996 143.62015 L 300.37172 144.93837 z M 299.59045 144.7161 L 300.31016999999997 144.92094 L 303.32541 134.32394 L 302.60569 134.1191 z M 320.43954 140.78625 L 320.41302 140.84411 C 322.07405 141.61392 321.29846000000003 143.32515 320.93008000000003 144.11968 L 318.45368 149.46463 L 316.85704000000004 139.12616 L 313.98196 137.79402 L 313.95544 137.85179 L 314.37401 138.04592 C 314.96683 138.32036 315.44601 138.61240999999998 315.52461 139.12303 L 317.45838 151.68823 L 317.51615 151.71501 L 318.48019 149.6348 L 321.0172 144.15983 C 321.38558 143.36539 322.18958 141.66743 323.85062 142.43724 L 323.87808 142.37947 z M 235.66291 138.11733 L 242.32589000000002 145.00371 C 243.01511000000002 145.71907000000002 243.96391000000003 146.68937000000003 244.995 146.26634 L 245.01915 146.32524 L 234.1337 150.79114 L 234.10955 150.73222 C 235.61206 150.11582 235.70685 148.4593 235.70382 147.44516000000002 L 235.60401000000002 138.14148 z M 314.73862 139.26745 L 313.88159 141.11656 L 314.03122 142.08088999999998 L 312.15711000000005 146.12570999999997 C 311.78873000000004 146.92023999999998 310.98473000000007 148.61810999999997 309.32369000000006 147.84829999999997 L 309.29623000000004 147.90606999999997 L 312.73478000000006 149.49929999999998 L 312.76130000000006 149.44152999999997 C 311.1002700000001 148.67161999999996 311.87586000000005 146.96039999999996 312.24329000000006 146.16586999999998 L 314.0577400000001 142.25107999999997 L 315.36365000000006 150.71760999999998 L 315.42142000000007 150.74437999999998 L 316.27182000000005 148.9098 L 314.79640000000006 139.29426999999998 z M 241.7397 147.60188 C 241.94586 147.51721999999998 242.09511 147.33558 242.13175999999999 147.13121999999998 C 242.17702999999997 146.90612 242.11585 146.67306 241.96366999999998 146.51179 L 235.72456999999997 140.07107 L 235.79899999999998 147.50936 C 235.80685999999997 148.07396 236.08943999999997 148.59481 236.56530999999998 148.91583999999997 C 237.03511999999998 149.22218999999998 237.63001999999997 149.28791999999999 238.16034 149.07029999999997 z M 220.87564 145.50002 L 220.90954 145.554 C 222.46044 144.58077 223.47249 146.16368 223.93794 146.90537 L 227.06909 151.89528 L 217.53112 147.59876000000003 L 214.84733 149.28281000000004 L 214.88123 149.33679000000004 L 215.27233999999999 149.09133000000003 C 215.8252 148.74435000000003 216.33108 148.50211000000002 216.80230999999998 148.71395000000004 L 228.39090999999996 153.94174000000004 L 228.44478999999995 153.90788000000003 L 227.22618999999995 151.96588000000003 L 224.01879999999994 146.85461000000004 C 223.55334999999994 146.11292000000003 222.56827999999993 144.51306000000002 224.11917999999994 143.53983000000002 L 224.08536999999995 143.48595000000003 z M 327.42081 157.50881 C 329.7258 159.04636000000002 331.29403 157.75751000000002 331.97871000000004 157.04682000000003 L 332.02227000000005 157.09541000000002 L 330.08755 159.36443000000003 L 323.3061 154.84016000000003 L 323.34209000000004 154.78718000000003 L 323.72562000000005 155.04344000000003 C 324.362 155.46759000000003 324.94914000000006 155.70626000000004 325.63855000000007 154.67321000000004 L 330.22391000000005 147.79952000000003 C 330.92185000000006 146.75318000000004 330.47676000000007 146.30260000000004 329.84038000000004 145.87844000000004 L 329.45685000000003 145.62218000000004 L 329.49189 145.56924000000004 L 336.08773 149.96978000000004 L 334.73542000000003 152.62760000000003 L 334.67387 152.60550000000003 C 335.06687 151.70041000000003 335.80080000000004 149.85486000000003 333.35091 148.22008000000002 L 332.76756 147.83134 L 332.75809 149.85376000000002 L 330.66427999999996 152.99263000000002 C 331.37926 153.46980000000002 332.22209 154.01326000000003 333.23821999999996 152.49017 L 333.29124999999993 152.52551 L 331.18796999999995 155.67763 L 331.13588999999996 155.64229 C 332.15201999999994 154.11921 331.32624 153.54926 330.61125 153.07209 L 328.51649 156.21096 L 326.65279999999996 156.9963 z M 325.97759 156.54564 L 326.59977000000003 156.96096 L 332.71453 147.79602 L 332.09235 147.38067 z M 216.49483 149.45203 L 217.5781 151.17823 L 218.46818000000002 151.57829 L 220.83776000000003 155.3544 C 221.30311000000003 156.09614 222.28828000000004 157.69595999999999 220.73738000000003 158.66917 L 220.77119000000002 158.72311000000002 L 223.98094000000003 156.70900000000003 L 223.94704000000004 156.65506000000002 C 222.39614000000003 157.62826 221.38409000000004 156.04536000000002 220.91864000000004 155.30362000000002 L 218.62530000000004 151.64888000000002 L 226.43538000000004 155.16880000000003 L 226.48936000000003 155.13494000000003 L 225.41461000000004 153.42220000000003 L 216.54882000000003 149.41811000000004 z M 342.06613 168.40527 L 342.92032 163.09961 C 344.38059 163.86579 345.67892 163.6355 346.5227 162.72420000000002 C 347.62595 161.53250000000003 347.51989 159.65508000000003 345.5454 157.82713 L 341.80665 154.36593000000002 L 341.76309 154.41266000000002 L 342.10211999999996 154.72633000000002 C 342.6627399999999 155.24551000000002 343.03207 155.76081000000002 342.17787999999996 156.68379000000002 L 336.56407999999993 162.74744 C 335.7203099999999 163.65874000000002 335.1786199999999 163.33037000000002 334.61704999999995 162.81119 L 334.27896999999996 162.49752 L 334.23540999999994 162.54425 L 337.1209099999999 165.21586 L 339.1635799999999 164.72029 L 341.5755799999999 162.1149 C 341.72046999999986 162.24884 341.6683899999999 162.57442 341.58409999999986 163.09497000000002 L 341.57178999999985 163.17412000000002 L 340.8899499999998 167.4028 C 340.7810499999998 168.10549 341.0348399999998 168.83932000000001 341.56041999999985 169.32608000000002 L 342.69397999999984 170.37526000000003 L 342.73753999999985 170.32848 C 342.21195999999986 169.84172 341.95815999999985 169.10799 342.06611999999984 168.40525000000002 z M 210.70725 155.83306 C 211.5711 156.81193 211.51153 158.30846 210.14019 159.85849 C 212.06563 158.28664999999998 213.82903 158.40796999999998 214.85092999999998 159.56591 C 215.90445999999997 160.75966 215.75360999999998 162.63401 213.73621999999997 164.41444 L 209.55807 168.10172 L 209.51593 168.05397 L 209.86205999999999 167.74845 C 210.43508999999997 167.24276999999998 210.81634999999997 166.7364 209.99463999999998 165.80527999999998 L 204.52693999999997 159.60971999999998 C 203.69466999999997 158.66665999999998 203.14482999999996 158.98202999999998 202.57182999999998 159.48771 L 202.22564999999997 159.79323 L 202.18350999999998 159.74548 L 205.91994999999997 156.44799999999998 C 207.92404999999997 154.70056999999997 209.72749999999996 154.72287999999998 210.70726999999997 155.83307 z M 209.57313 156.8339 C 208.60393 155.73565 207.22745999999998 155.37903 206.04564 156.422 L 205.21000999999998 157.15946 L 207.16235999999998 157.68737 L 209.5433 160.38523999999998 C 210.72505999999998 159.34226999999998 210.53187 157.92020999999997 209.57313 156.83389999999997 z M 337.1531 165.15834 L 336.60384 164.64998 L 344.08796 156.5651 L 344.63722 157.07347000000001 z M 341.61914 162.06819 L 344.35596000000004 159.11230999999998 L 344.68457000000006 157.11674 L 345.50183000000004 157.87386999999998 C 346.74050000000005 159.0204 346.48387 160.54001 345.41281000000004 161.69665999999998 C 344.34176 162.8533 342.85781000000003 163.21470999999997 341.61914 162.06819 z M 211.89147 165.95749 L 212.45257 165.46234 L 205.16226 157.20159 L 204.6012 157.69675 z M 199.21307 234.99981 C 199.21307 193.14385 233.14407999999997 159.21282 275.00005 159.21282 C 316.85611 159.21282 350.78702999999996 193.14385 350.78702999999996 234.99981 C 350.78702999999996 276.8554 316.85610999999994 310.78632 275.00005 310.78632 C 233.14408999999998 310.78632 199.21307 276.8554 199.21307 234.99980999999997 z M 212.5003 165.4202 L 213.69409000000002 164.36669 C 214.91164 163.29211 214.68957 161.78928000000002 213.65716 160.61941000000002 C 212.61423 159.4376 211.16116 159.04236 209.9436 160.11694000000003 L 209.58545 160.43300000000002 L 212.21924 163.41737000000003 z M 197.3643 164.8743 L 197.66167 164.50052 L 197.61183 164.46087 L 195.70866999999998 166.85308 L 195.63927999999999 166.9403 L 197.79584999999997 173.64063000000002 L 190.78224999999998 173.04544 L 188.80972999999997 175.52487000000002 L 188.85953999999998 175.56455000000003 L 189.14694999999998 175.20318000000003 C 189.55339999999998 174.69237000000004 189.95015999999998 174.29596000000004 190.46498999999997 174.33933000000002 L 203.13175999999999 175.42393 L 203.17140999999998 175.37402 L 201.37724999999998 173.94671 L 197.91024 173.65021 L 195.77632 167.04934999999998 L 203.23953 172.98682999999997 C 204.21137 173.75995999999998 203.92446 174.32521999999997 203.45858 174.91074999999998 L 203.16121 175.28453 L 203.21105 175.32421 L 206.33342 171.39947 L 206.28358 171.35989 L 205.98621 171.73367000000002 C 205.52033 172.31920000000002 205.03408 172.72584 204.06224 171.95271000000002 L 197.59578 166.80819000000002 C 196.61148 166.02512000000002 196.89838 165.45990000000003 197.36427 164.87431000000004 z M 358.34691 171.87192 L 353.42726 180.09498 C 352.91588 180.94643 352.22552 182.11473999999998 352.90168 183.00055999999998 L 352.85149 183.03919999999997 L 345.71113 173.68749999999997 L 345.76132 173.64885999999998 C 346.74714 174.93962 348.37125000000003 174.60078 349.34949 174.33449 L 358.30809 171.82135 z M 350.76619 180.20388 C 350.90161 180.38106 351.11563 180.47794 351.32302 180.46023 C 351.55219 180.44546 351.76052999999996 180.32585 351.87701 180.13702 L 356.47658 172.43897 L 349.31254 174.44310000000002 C 348.76896 174.59737 348.33997 175.00552000000002 348.15342000000004 175.54844000000003 C 347.97917000000007 176.08179000000004 348.07103000000006 176.67328000000003 348.41858 177.12879000000004 z M 190.41992 175.13754 L 192.01473 176.40633 L 192.98717 176.48825 L 196.47582 179.26371 C 197.16109 179.8089 198.62139 180.99103 197.48147 182.42384 L 197.53131 182.46352000000002 L 199.89043999999998 179.49809000000002 L 199.8406 179.45851000000002 C 198.70068 180.89132 197.22056 179.73409 196.53529 179.18899000000002 L 193.15878 176.50274000000002 L 201.69448 177.23051 L 201.73413 177.1807 L 200.15178 175.92186 L 190.45956 175.08774 z M 179.97955 191.10809 L 179.92329999999998 191.07826 L 185.2138 181.08848 L 185.27005 181.11831 C 184.41311 182.73635000000002 186.066 183.62965 186.83979 184.03951 L 191.22970999999998 186.36429 C 193.00256 187.30314 193.51378 189.50169000000002 192.53019999999998 191.35894000000002 C 191.54663 193.21619 189.44080999999997 194.02872000000002 187.66794 193.08986000000002 L 182.06805999999997 190.12424000000001 C 180.95646999999997 189.53559 180.55333999999996 190.02471000000003 180.19565999999998 190.70001000000002 z M 369.54515 189.97586 L 365.35373999999996 182.07014 L 362.58092999999997 183.16184 L 362.59702999999996 183.22557 C 363.52887999999996 182.91136 365.44654999999995 182.38132000000002 366.81873999999993 184.96966 L 367.08768999999995 185.47611 L 358.56281999999993 189.99518 C 357.4652499999999 190.57683 357.06182999999993 190.08789000000002 356.7038599999999 189.41268 L 356.4879399999999 189.00471 L 356.4320699999999 189.03454 L 358.7806199999999 193.46563999999998 L 358.8364899999999 193.43580999999998 L 358.6129999999999 193.01382999999998 C 358.25502999999986 192.33862 358.0845799999999 191.74437999999998 359.1811999999999 191.16272999999998 L 367.7060699999999 186.64365999999998 L 367.9674399999999 187.136 C 369.3472199999999 189.73844 367.8244399999999 191.01395 367.0488499999999 191.62354 L 367.0924099999999 191.67240999999999 z M 192.44579 191.31425 C 192.91522999999998 190.42776999999998 193.04531 189.4337 192.81698 188.53813 C 192.59611 187.62843999999998 192.01515 186.88837 191.18501 186.44877 L 186.7951 184.12389 C 186.02131 183.71411999999998 184.35354999999998 182.84895 183.49661 184.46698999999998 L 182.10320000000002 187.09812999999997 C 181.74552000000003 187.77342999999996 181.57496 188.36776999999998 182.68655 188.95641999999998 L 188.28643000000002 191.92203999999998 C 190.19998 192.93542 191.74537000000004 192.63682999999997 192.44579000000002 191.31426 z M 177.28127 197.56775 L 177.42446 197.12882 L 177.36385 197.10903 L 175.81352 201.86192 L 175.87403 201.88162 L 176.01722 201.44269 C 176.25425 200.71615 176.56297 200.18044 177.75875000000002 200.57051 L 181.63367000000002 201.83456 L 180.07340000000002 206.61765 L 176.19848000000002 205.35369 C 175.00271 204.96362 175.06919000000002 204.34893 175.30622000000002 203.62239 L 175.45433000000003 203.16821 L 175.39382000000003 203.14851 L 173.83847000000003 207.91645 L 173.89898000000002 207.93624 L 174.04217000000003 207.49731 C 174.27920000000003 206.77068 174.59285000000003 206.21991 175.78862000000004 206.60997 L 183.64444000000003 209.17255 C 184.82506000000004 209.55769 184.75366000000002 210.18754 184.51662000000002 210.91408 L 184.37343 211.35301 L 184.43394 211.3728 L 185.98929 206.60476 L 185.92878000000002 206.58506 L 185.78067000000001 207.03915 C 185.54364 207.76569 185.23492000000002 208.3014 184.05429 207.91626 L 180.16421 206.64728 L 181.72448 201.86419 L 185.61456 203.13317 C 186.79518000000002 203.51831 186.72861 204.13292 186.49167 204.85955 L 186.34848 205.29848 L 186.40899 205.31818 L 187.95941 200.56539 L 187.8988 200.5456 L 187.75561 200.98463 C 187.51867 201.71117 187.20503 202.26194 186.02430999999999 201.8768 L 178.16849 199.31422 C 176.97271999999998 198.92415 177.04421 198.2943 177.28125 197.56777 z M 367.07728 198.17752 C 370.04517 197.1631 373.18163 198.46350999999999 374.07842999999997 201.08498999999998 C 374.97429 203.70636999999996 373.28957999999994 206.65456999999998 370.32169 207.66898999999998 C 367.3538 208.68331999999998 364.20219 207.38810999999998 363.30633 204.76663 C 362.41047 202.14525 364.10938 199.19194 367.07727 198.17752 z M 367.59244 199.6841 C 364.67001 200.68309 362.78359 202.943 363.39629 204.73576 C 364.009 206.52862 366.88408000000004 207.1613 369.80652000000003 206.16241 C 372.72990000000004 205.16342 374.60022000000004 202.90861999999998 373.98751000000004 201.11586 C 373.37480000000005 199.323 370.51487000000003 198.68511 367.59244000000007 199.68409 z M 368.82259 223.5848 L 372.75547 219.92276 C 373.43731 221.42432000000002 374.60306 222.03987 375.82848 221.83891 C 377.43175 221.57612 378.50091000000003 220.02929 378.06529 217.3741 L 377.24046 212.3464 L 377.17796 212.35663 L 377.25277 212.81233 C 377.37683 213.56642 377.35126 214.19987 376.10974 214.40338 L 367.95608999999996 215.74063999999998 C 366.72972999999996 215.94159 366.50433999999996 215.34944 366.38028999999995 214.59525 L 366.30547999999993 214.13965 L 366.24297999999993 214.14997 L 366.8793599999999 218.03067 L 368.7951399999999 218.89424 L 372.2990299999999 218.31969999999998 C 372.3312299999999 218.51421 372.0897399999999 218.73902999999999 371.7043199999999 219.09831999999997 L 371.64560999999986 219.15295999999998 L 368.51009999999985 222.07112999999998 C 367.99303999999984 222.55920999999998 367.74208999999985 223.29407999999998 367.8585699999999 224.00110999999998 L 368.10857999999985 225.52510999999998 L 368.17107999999985 225.51478999999998 C 368.05554999999987 224.80775999999997 368.30554999999987 224.07288999999997 368.8226099999998 223.58480999999998 z M 172.303 214.59372 L 170.93923 223.43706999999998 L 173.81507000000002 224.21881999999997 L 173.84054000000003 224.15830999999997 C 172.90491000000003 223.85289999999998 171.05069000000003 223.13204999999996 171.49719000000005 220.23669999999998 L 171.58460000000005 219.67021 L 181.12020000000004 221.14070999999998 C 182.34760000000003 221.33001 182.37885000000003 221.96308 182.26237000000003 222.71840999999998 L 182.19201000000004 223.17476999999997 L 182.25489000000005 223.18442999999996 L 183.01931000000005 218.22774999999996 L 182.95633000000004 218.21808999999996 L 182.88360000000003 218.69016999999997 C 182.76712000000003 219.44549999999995 182.54903000000002 220.02401999999998 181.32162000000002 219.83470999999997 L 171.78592000000003 218.36420999999999 L 171.87087000000002 217.81343999999999 C 172.31984000000003 214.90246 174.30266000000003 214.7893 175.28915000000003 214.7643 L 175.28318000000004 214.69886 z M 366.93902 218.00471 L 366.81875 217.26623999999998 L 377.69123 215.48323 L 377.8115 216.2217 z M 372.36247 218.30936 L 376.33702 217.65745 L 377.82191 216.28459 L 378.00279 217.38434 C 378.27553 219.04982 377.13913 220.09124 375.58416 220.34626 C 374.02824 220.60138 372.63521 219.97475 372.36247 218.30936 z M 176.74356 265.53783 L 180.27425 263.34742 L 176.14809 263.5425 L 175.74836 262.20345000000003 L 182.30697999999998 258.19386000000003 L 182.69836999999998 259.50545000000005 L 180.45113999999998 260.94110000000006 L 177.70266999999998 262.3142500000001 L 183.17602999999997 261.9477600000001 L 183.46817999999996 262.92696000000007 L 178.71708999999996 265.71303000000006 L 181.74132999999995 265.2632100000001 L 184.40759999999995 265.2319600000001 L 184.79908999999995 266.5435500000001 L 177.14601999999996 266.8863600000001 z M 366.5034 262.51785 L 373.66933 264.4876 L 374.83698 260.24032 L 373.66553999999996 259.91834 L 372.85112 262.88339 L 370.9647 262.36444 L 371.62855 259.9477 L 370.47605000000004 259.6314 L 369.8122 262.04814 L 367.97124 261.54244 L 368.75062 258.70713 L 367.63506 258.4003 z M 363.46259 271.2075 L 365.03175999999996 267.10227 L 366.13974999999994 267.52558 L 365.5923899999999 268.95743999999996 L 371.38990999999993 271.17341 L 370.9183099999999 272.40735 L 365.1207899999999 270.19043 L 364.5696399999999 271.63081 z M 186.48893 271.01147 L 179.67168 273.96988999999996 L 181.42514 278.01072999999997 L 182.53919 277.52680999999995 L 181.31529 274.70664999999997 L 183.11023 273.92726999999996 L 184.1078 276.22657999999996 L 185.20423 275.75023999999996 L 184.20666 273.45187999999996 L 185.95737 272.69238999999993 L 187.12757 275.38848999999993 L 188.18868 274.92824999999993 z M 360.8555 276.89138 L 360.26836000000003 278.07323 L 365.99201000000005 283.21069 L 366.60093000000006 281.98528 L 365.5990100000001 281.05628 L 366.4437300000001 279.35642 L 367.7846800000001 279.60359 L 368.3945500000001 278.37723 z M 364.5791 280.18409 L 362.39437999999996 278.40942 L 365.12835999999993 279.07895 z M 356.28814 285.1975 L 356.9946 284.08194 L 363.25709 288.04702 L 362.56578 289.13890999999995 L 357.42642 288.46274999999997 L 359.86683 289.87093999999996 L 361.46252 290.88138999999995 L 360.75606 291.99694999999997 L 354.49357 288.03092 L 355.20002999999997 286.91535999999996 L 360.49469 287.68999999999994 L 357.77018 286.13597999999996 z M 189.82889 290.72796 C 190.35736 291.53385 190.82803 291.51397 191.44065 291.11244 L 192.16994 292.22422 C 190.80767 293.11724 189.81258 292.84829 188.84552 291.37287 C 187.87834999999998 289.89745 188.05961 288.92582999999996 189.34126999999998 288.08583999999996 L 191.86427999999998 286.43143999999995 C 193.17816999999997 285.57061999999996 194.09346 285.78842999999995 195.07641999999998 287.28752999999995 C 196.05936999999997 288.78662999999995 195.91816999999998 289.76676999999995 194.53977999999998 290.67114999999995 L 193.81049 289.55842999999993 C 194.41503999999998 289.1616399999999 194.65847 288.7951499999999 194.09301 287.93243999999993 C 193.56454 287.12654999999995 193.12557999999999 287.19472999999994 192.53714 287.58109999999994 L 190.12698 289.16068999999993 C 189.53853 289.54705999999993 189.30045 289.92207999999994 189.82887 290.7279699999999 z M 351.34765 292.46097 L 350.53323 293.5254 L 356.42924 298.03406 L 357.24271 296.96963 z M 196.81893 301.99913 L 197.97375 298.9498 C 198.76507999999998 299.46117999999996 199.47175 299.38068 200.32231 298.68559 L 200.62075 298.44126 C 201.83689999999999 297.44691 201.81336 296.38249 200.67836 294.99514 L 199.49454 293.54717999999997 L 193.74954 298.24618 L 194.59165 299.27556999999996 L 196.61357999999998 297.62210999999996 L 196.92478999999997 298.0028 L 195.83647999999997 300.79739 z M 197.55502 296.83988 L 199.38297 295.34457 L 199.743 295.78492 C 200.39593 296.58324 200.22835 296.95636 199.6837 297.40239 L 199.48970999999997 297.56054 C 198.94504999999998 298.00658 198.51305999999997 298.01131 197.90283999999997 297.26508 z M 349.58718 301.49059 L 348.73488 302.42244 L 347.84565 301.60897 L 349.53130999999996 299.76706 L 350.95369999999997 301.06918 C 352.15543999999994 302.16864000000004 352.15355 303.21224 350.96221999999995 304.51341 C 349.77183999999994 305.81458000000003 348.77086999999995 305.86572 347.59090999999995 304.78520000000003 L 345.39387999999997 302.77472000000006 C 344.27736999999996 301.75291000000004 344.22054999999995 300.77277000000004 345.43080999999995 299.45076000000006 C 346.64201999999995 298.12780000000004 347.60511999999994 298.0037500000001 348.7775 299.0776400000001 L 347.87975 300.0587300000001 C 347.36837 299.5899700000001 346.99525 299.48390000000006 346.29826 300.2443400000001 C 345.64767 300.9555400000001 345.8437 301.38358000000005 346.34182000000004 301.8390800000001 L 348.48866000000004 303.80410000000006 C 349.00761000000006 304.27949000000007 349.42998000000006 304.41775000000007 350.08056000000005 303.7065600000001 C 350.73209 302.99536000000006 350.66107000000005 302.4735700000001 350.12033 301.97924000000006 z M 200.61888 306.20474 L 205.87473 300.9508 L 208.89338 303.97078 L 208.07539 304.78899 L 205.99706 302.70938 L 204.6473 304.05885 L 206.41899 305.83068000000003 L 205.57369 306.67635 L 203.802 304.90357 L 202.41817 306.28713 L 204.5919 308.46144 L 203.73296000000002 309.32036999999997 z M 338.95429 305.94053 L 337.96657 306.8184 L 341.35681999999997 313.72201 L 342.37958 312.81289000000004 L 341.79717999999997 311.57706 L 343.21673 310.31566000000004 L 344.36827999999997 311.04580000000004 L 345.39104 310.13668000000007 z M 341.17784 310.38668 L 339.81322 307.92354 L 342.09927 309.56753 z M 214.91561 309.24745 L 213.89522 308.40936 L 207.60414 312.83373 L 208.66178 313.70307 L 209.79169 312.93506 L 211.25905999999998 314.13964000000004 L 210.71746999999996 315.39157000000006 L 211.77507999999997 316.25997000000007 z M 210.87089 312.13673 L 213.09113 310.40562 L 211.82424 312.9199 z M 333.29219 314.01842 L 333.8263 317.30734 L 333.58292 317.48064 L 330.64817 315.90484 L 332.00427 317.54125 L 333.52704 319.67578 L 332.44367 320.44852999999995 L 328.13483 314.4057399999999 L 329.17842 313.6613999999999 L 332.31866 315.4587999999999 L 331.65008 311.8990399999999 L 332.69367 311.1546999999999 L 337.00346 317.19653999999986 L 335.92009 317.96928999999983 L 334.39827 315.83475999999985 z M 219.87049 313.06669 L 223.51662 315.52130999999997 L 222.85467 316.50523999999996 L 221.58323 315.64914999999996 L 218.11712 320.79891999999995 L 217.02163 320.06120999999996 L 220.48782999999997 314.91143999999997 L 219.20843999999997 314.05062 z M 323.54759 317.3045 L 322.38941 317.97782 L 326.11963 324.39373 L 327.27781 323.72041 z M 227.65216 317.99107 L 224.11475000000002 324.5263 L 227.98863000000003 326.62295 L 228.56668000000002 325.55568 L 225.86262000000002 324.09162 L 226.79399 322.37093 L 228.99794 323.56415 L 229.5669 322.51297999999997 L 227.36295 321.31976 L 228.27131 319.64167999999995 L 230.85671 321.0404 L 231.40729 320.02331999999996 z M 311.57944 330.04162 C 312.3162 329.75657 312.50466 329.19879000000003 312.25086 328.54252 L 310.39948 323.74030000000005 L 311.64099 323.26207000000005 L 313.51698999999996 328.12680000000006 C 314.06813999999997 329.5567700000001 313.45921999999996 330.57668000000007 312.00178999999997 331.1382500000001 C 310.54531 331.6998200000001 309.47236 331.3286000000001 308.92121 329.8986300000001 L 307.04521 325.0339000000001 L 308.28578 324.5547200000001 L 310.13811 329.3578900000001 C 310.39096 330.0141600000001 310.84173 330.3257200000001 311.57944 330.04162000000014 z M 244.22433 333.1866 L 244.42822 329.03591 L 242.24444 332.54264 L 240.91523 332.11081 L 241.34289 324.4354 L 242.64444 324.85871000000003 L 242.54841 327.52356000000003 L 242.11686 330.56532000000004 L 244.92575 325.85306 L 245.89737 326.16936000000004 L 245.49016 331.66195000000005 L 246.83831 328.91755000000006 L 248.32765 326.7063100000001 L 249.6293 327.1296200000001 L 245.56261 333.6212900000001 z M 301.58009 334.52376 C 303.28373999999997 334.06919999999997 303.85287999999997 333.20838 303.45704 331.72821999999996 L 302.64641 328.69214999999997 C 302.2411 327.17411 301.35755 326.74134 299.62549 327.20441999999997 C 297.89343 327.66655 297.39910000000003 328.46770999999995 297.80441 329.98479999999995 L 298.61504 333.02086999999995 C 299.00994000000003 334.50197 299.87549 334.97925999999995 301.58009000000004 334.5237599999999 z M 301.27705 333.38736 C 300.3452 333.63642 300.06395 333.29266 299.88212 332.61272 L 299.10652999999996 329.70733 C 298.93228 329.05580000000003 298.99762999999996 328.58893 299.92852 328.34081000000003 C 300.92571 328.0747 301.20507 328.44877 301.37932 329.10030000000006 L 302.15491000000003 332.0056900000001 C 302.33673000000005 332.68563000000006 302.20794 333.13925000000006 301.27704000000006 333.38736000000006 z M 259.13784 329.22436 L 257.84168 328.97246 L 257.24005 332.0663 L 254.96923999999999 331.625 L 255.57086999999999 328.53116 L 254.25576999999998 328.27452 L 252.83726 335.57018999999997 L 254.15236 335.82588 L 254.73742 332.81631999999996 L 257.00822999999997 333.25856999999996 L 256.42497 336.25771 L 257.72112999999996 336.50960999999995 z M 291.47638 330.43651 L 291.80073 329.03401 L 293.21753 328.79915 L 292.07952 333.36557 L 292.589 336.43667999999997 L 291.28631 336.65259999999995 L 290.77683 333.58149 L 288.20639 329.63061999999996 L 289.62319 329.39575999999994 L 290.41772000000003 330.65147999999994 L 291.21045000000004 332.13163999999995 z M 265.92033 330.08518 L 267.23571 330.20070999999996 L 268.60355 337.76153999999997 L 267.24016 337.64221999999995 L 266.98040000000003 336.30316999999997 L 265.08887000000004 336.13744999999994 L 264.59009000000003 337.40926999999994 L 263.2266 337.28899999999993 z M 277.87883 330.52459 L 273.48372 330.55584 L 273.49205 331.74053 L 275.03424 331.73010999999997 L 275.0779 337.93767999999994 L 276.39839 337.9282099999999 L 276.35473 331.72063999999995 L 277.88716 331.71021999999994 z M 266.38398 332.18657 L 265.52913 334.86941 L 266.75814 334.97737 z" stroke-linecap="round" />
</g>
		<g transform="matrix(1 0 0 1 0 0)"  >
<rect style="stroke: none; stroke-width: 2; stroke-dasharray: none; stroke-linecap: butt; stroke-dashoffset: 0; stroke-linejoin: miter; stroke-miterlimit: 4; fill: rgb(255,255,255); fill-opacity: 0; fill-rule: nonzero; opacity: 1;" vector-effect="non-scaling-stroke"  x="-129" y="-129" rx="0" ry="0" width="258" height="258" />
</g>
		<g transform="matrix(1 0 0 1 0 0)"  >
<rect style="stroke: none; stroke-width: 2; stroke-dasharray: none; stroke-linecap: butt; stroke-dashoffset: 0; stroke-linejoin: miter; stroke-miterlimit: 4; fill: rgb(255,255,255); fill-opacity: 0; fill-rule: nonzero; opacity: 1;" vector-effect="non-scaling-stroke"  x="-129" y="-129" rx="0" ry="0" width="258" height="258" />
</g>
		<g transform="matrix(1 0 0 1 -0.5 -0.5)"  >
<rect style="stroke: none; stroke-width: 2; stroke-dasharray: none; stroke-linecap: butt; stroke-dashoffset: 0; stroke-linejoin: miter; stroke-miterlimit: 4; fill: rgb(255,255,255); fill-opacity: 0; fill-rule: nonzero; opacity: 1;" vector-effect="non-scaling-stroke"  x="-122.5" y="-122.5" rx="0" ry="0" width="245" height="245" />
</g>
		<g transform="matrix(1 0 0 1 0 0)"  >
<rect style="stroke: none; stroke-width: 2; stroke-dasharray: none; stroke-linecap: butt; stroke-dashoffset: 0; stroke-linejoin: miter; stroke-miterlimit: 4; fill: rgb(255,255,255); fill-opacity: 0; fill-rule: nonzero; opacity: 1;" vector-effect="non-scaling-stroke"  x="-72" y="-72" rx="0" ry="0" width="144" height="144" />
</g>
		<g transform="matrix(1 0 0 1 0 0)"  >
<rect style="stroke: none; stroke-width: 2; stroke-dasharray: none; stroke-linecap: butt; stroke-dashoffset: 0; stroke-linejoin: miter; stroke-miterlimit: 4; fill: rgb(255,255,255); fill-opacity: 0; fill-rule: nonzero; opacity: 1;" vector-effect="non-scaling-stroke"  x="-72" y="-72" rx="0" ry="0" width="144" height="144" />
</g>
		<g transform="matrix(1 0 0 1 0 0)"  >
<rect style="stroke: none; stroke-width: 2; stroke-dasharray: none; stroke-linecap: butt; stroke-dashoffset: 0; stroke-linejoin: miter; stroke-miterlimit: 4; fill: rgb(255,255,255); fill-opacity: 0; fill-rule: nonzero; opacity: 1;" vector-effect="non-scaling-stroke"  x="-72" y="-72" rx="0" ry="0" width="144" height="144" />
</g>
		<g transform="matrix(1 0 0 1 0 0)"  >
<rect style="stroke: none; stroke-width: 2; stroke-dasharray: none; stroke-linecap: butt; stroke-dashoffset: 0; stroke-linejoin: miter; stroke-miterlimit: 4; fill: rgb(255,255,255); fill-opacity: 0; fill-rule: nonzero; opacity: 1;" vector-effect="non-scaling-stroke"  x="-64" y="-64" rx="0" ry="0" width="128" height="128" />
</g>
</g>
</g>
</svg>